<svg width="17" height="16" viewBox="0 0 17 16" fill="none" xmlns="http://www.w3.org/2000/svg">
<path d="M2.95117 4.11765H13.6178M6.95117 11.1765V6.94118M9.61784 11.1765V6.94118M10.9512 14H5.61784C4.88146 14 4.28451 13.3679 4.28451 12.5882V4.82353C4.28451 4.43368 4.58298 4.11765 4.95117 4.11765H11.6178C11.986 4.11765 12.2845 4.43368 12.2845 4.82353V12.5882C12.2845 13.3679 11.6876 14 10.9512 14ZM6.95117 4.11765H9.61784C9.98603 4.11765 10.2845 3.80161 10.2845 3.41176V2.70588C10.2845 2.31603 9.98603 2 9.61784 2H6.95117C6.58298 2 6.28451 2.31603 6.28451 2.70588V3.41176C6.28451 3.80161 6.58298 4.11765 6.95117 4.11765Z" stroke="#525866" stroke-linecap="round" stroke-linejoin="round"/>
</svg>
